<svg width="192" height="32" viewBox="0 0 192 32" fill="none" xmlns="http://www.w3.org/2000/svg">
<rect x="160.5" y="0.5" width="31" height="31" rx="4.5" stroke="#46A358" stroke-opacity="0.2"/>
<path fill-rule="evenodd" clip-rule="evenodd" d="M182.165 13.4299L182.168 13.4306C182.168 13.4306 182.168 13.4305 182.167 13.4303C182.166 13.4302 182.166 13.4301 182.165 13.4299ZM171.324 13.3569C173.918 13.1957 178.748 13.1957 181.341 13.3569L181.342 13.3644C181.405 13.9972 181.43 14.8414 181.43 16.0192C181.43 17.1824 181.405 18.0269 181.344 18.665C178.696 18.7703 173.971 18.7703 171.323 18.665C171.261 18.0332 171.236 17.1914 171.236 16.0192C171.236 14.8414 171.261 13.9972 171.324 13.3644L171.324 13.3569ZM182.242 18.6111C182.242 18.6111 182.241 18.6115 182.237 18.6122L182.242 18.6111ZM170.498 18.6077L170.501 18.6084C170.499 18.6079 170.498 18.6077 170.498 18.6077ZM167 16.0192C167 20.8412 167.389 22.63 170.422 22.8633C173.222 23.0189 179.444 23.0189 182.244 22.8633C185.277 22.7078 185.666 20.8412 185.666 16.0192C185.666 11.1971 185.277 9.40832 182.244 9.17499C179.444 8.94167 173.222 8.94167 170.422 9.17499C167.389 9.40832 167 11.1971 167 16.0192ZM170.498 13.4306C170.498 13.4306 170.499 13.4304 170.501 13.4299L170.498 13.4306ZM176.782 17.7389C175.504 18.3781 174 17.4484 174 16.0192C174 14.5899 175.504 13.6602 176.782 14.2994C178.199 15.008 178.199 17.0303 176.782 17.7389Z" fill="#46A358" fill-opacity="0.6"/>
<rect x="120.5" y="0.5" width="31" height="31" rx="4.5" stroke="#46A358" stroke-opacity="0.2"/>
<path d="M131.333 9.66667C131.333 10.6 130.6 11.3333 129.667 11.3333C128.733 11.3333 128 10.6 128 9.66667C128 8.73333 128.733 8 129.667 8C130.6 8 131.333 8.73333 131.333 9.66667ZM131.333 12.6667H128V23.3333H131.333V12.6667ZM136.667 12.6667H133.333V23.3333H136.667V17.7333C136.667 14.6 140.667 14.3333 140.667 17.7333V23.3333H144V16.6C144 11.3333 138.067 11.5333 136.667 14.1333V12.6667Z" fill="#46A358" fill-opacity="0.6"/>
<rect x="40.5" y="0.5" width="31" height="31" rx="4.5" stroke="#46A358" stroke-opacity="0.2"/>
<path d="M56 9.46667C58.1333 9.46667 58.4 9.46667 59.2667 9.53333C61.4667 9.6 62.4667 10.6667 62.5333 12.8C62.6 13.6667 62.6 13.8667 62.6 16C62.6 18.1333 62.6 18.4 62.5333 19.2C62.4667 21.3333 61.4 22.4 59.2667 22.4667C58.4 22.5333 58.2 22.5333 56 22.5333C53.8667 22.5333 53.6 22.5333 52.8 22.4667C50.6 22.4 49.6 21.3333 49.5333 19.2C49.4667 18.3333 49.4667 18.1333 49.4667 16C49.4667 13.8667 49.4667 13.6 49.5333 12.8C49.6 10.6667 50.6667 9.6 52.8 9.53333C53.6 9.46667 53.8667 9.46667 56 9.46667ZM56 8C53.8 8 53.5333 8 52.7333 8.06667C49.8 8.2 48.2 9.8 48.0667 12.7333C48 13.5333 48 13.8 48 16C48 18.2 48 18.4667 48.0667 19.2667C48.2 22.2 49.8 23.8 52.7333 23.9333C53.5333 24 53.8 24 56 24C58.2 24 58.4667 24 59.2667 23.9333C62.2 23.8 63.8 22.2 63.9333 19.2667C64 18.4667 64 18.2 64 16C64 13.8 64 13.5333 63.9333 12.7333C63.8 9.8 62.2 8.2 59.2667 8.06667C58.4667 8 58.2 8 56 8ZM56 11.8667C53.7333 11.8667 51.8667 13.7333 51.8667 16C51.8667 18.2667 53.7333 20.1333 56 20.1333C58.2667 20.1333 60.1333 18.2667 60.1333 16C60.1333 13.7333 58.2667 11.8667 56 11.8667ZM56 18.6667C54.5333 18.6667 53.3333 17.4667 53.3333 16C53.3333 14.5333 54.5333 13.3333 56 13.3333C57.4667 13.3333 58.6667 14.5333 58.6667 16C58.6667 17.4667 57.4667 18.6667 56 18.6667ZM60.2667 10.8C59.7333 10.8 59.3333 11.2 59.3333 11.7333C59.3333 12.2667 59.7333 12.6667 60.2667 12.6667C60.8 12.6667 61.2 12.2667 61.2 11.7333C61.2 11.2 60.8 10.8 60.2667 10.8Z" fill="#46A358" fill-opacity="0.6"/>
<rect x="0.5" y="0.5" width="31" height="31" rx="4.5" stroke="#46A358" stroke-opacity="0.2"/>
<path d="M14 13.3333H12V16H14V24H17.3333V16H19.7333L20 13.3333H17.3333V12.2C17.3333 11.6 17.4667 11.3333 18.0667 11.3333H20V8H17.4667C15.0667 8 14 9.06667 14 11.0667V13.3333Z" fill="#46A358" fill-opacity="0.6"/>
<rect x="80.5" y="0.5" width="31" height="31" rx="4.5" stroke="#46A358" stroke-opacity="0.2"/>
<path d="M93.0319 22.0036C99.0699 22.0036 102.372 17.0012 102.372 12.6636C102.372 12.5214 102.369 12.38 102.362 12.2392C103.003 11.7759 103.561 11.1976 104 10.5395C103.412 10.8008 102.779 10.9768 102.115 11.0562C102.793 10.6498 103.313 10.0067 103.559 9.24021C102.924 9.61636 102.222 9.88969 101.474 10.0371C100.875 9.39908 100.022 9 99.0779 9C97.2648 9 95.7946 10.4702 95.7946 12.2823C95.7946 12.54 95.8236 12.7904 95.8796 13.0308C93.1516 12.8938 90.7324 11.5874 89.1135 9.60125C88.8313 10.0862 88.6688 10.65 88.6688 11.2511C88.6688 12.3899 89.2484 13.3953 90.1297 13.9836C89.5912 13.9671 89.0853 13.8189 88.6429 13.5729C88.6422 13.5866 88.6422 13.6004 88.6422 13.6148C88.6422 15.2047 89.7739 16.532 91.2758 16.8329C91.0001 16.908 90.71 16.9484 90.4105 16.9484C90.199 16.9484 89.9934 16.9273 89.7934 16.8893C90.2112 18.1933 91.4232 19.1425 92.8601 19.1693C91.7364 20.0499 90.3209 20.5745 88.783 20.5745C88.5183 20.5745 88.257 20.5594 88 20.529C89.4527 21.46 91.1777 22.0036 93.0319 22.0036Z" fill="#46A358" fill-opacity="0.6"/>
</svg>
